<svg width="128" height="82" viewBox="0 0 128 82" fill="none" xmlns="http://www.w3.org/2000/svg">
<g filter="url(#filter0_d_1_2)">
<path d="M45.76 51.216C46.976 52.752 47.584 55.024 47.584 58.032C47.584 60.976 46.432 63.376 44.128 65.232C41.888 67.024 38.784 67.92 34.816 67.92C32.512 67.92 29.568 67.664 25.984 67.152C18.944 66.064 14.4 65.52 12.352 65.52C10.368 65.52 8.96 65.584 8.128 65.712C7.296 65.776 6.208 65.872 4.864 66L16.48 2.64H37.504L27.904 55.44C28.736 55.568 29.536 55.632 30.304 55.632H32.704C38.08 55.632 42.432 54.16 45.76 51.216ZM53.095 66.96C46.055 66.96 42.535 63.648 42.535 57.024C42.535 52.32 43.831 48.448 46.423 45.408C49.175 42.176 52.935 40.56 57.703 40.56C61.159 40.56 63.767 41.36 65.527 42.96C67.287 44.56 68.167 47.04 68.167 50.4C68.167 55.52 66.791 59.568 64.039 62.544C61.351 65.488 57.703 66.96 53.095 66.96ZM54.343 46.08C53.959 46.944 53.607 48.032 53.287 49.344C52.999 50.624 52.663 52.288 52.279 54.336C51.895 56.384 51.703 58.672 51.703 61.2C51.703 62.032 51.831 62.72 52.087 63.264C52.375 63.808 52.887 64.08 53.623 64.08C54.359 64.08 54.951 63.904 55.399 63.552C55.879 63.2 56.295 62.608 56.647 61.776C57.287 60.304 57.863 58.208 58.375 55.488C58.887 52.736 59.159 50.768 59.191 49.584C59.255 48.4 59.287 47.376 59.287 46.512C59.287 45.616 59.159 44.88 58.903 44.304C58.647 43.728 58.151 43.44 57.415 43.44C56.711 43.44 56.119 43.664 55.639 44.112C55.159 44.56 54.727 45.216 54.343 46.08ZM69.1184 45.936C70.2064 44.4 71.5664 43.12 73.1984 42.096C74.8624 41.072 76.7024 40.56 78.7184 40.56C80.7344 40.56 82.2224 40.88 83.1824 41.52L92.5904 40.56L89.3264 58.992C88.2064 65.264 86.4624 69.632 84.0944 72.096C81.8224 74.432 78.4784 75.6 74.0624 75.6C70.7024 75.6 68.0624 75.072 66.1424 74.016C64.2224 72.96 63.2624 71.552 63.2624 69.792C63.2624 68.48 63.7584 67.44 64.7504 66.672C65.7424 65.936 67.0064 65.568 68.5424 65.568C69.8864 65.568 71.0704 65.872 72.0944 66.48C72.7024 66.8 73.1504 67.184 73.4384 67.632C72.7024 68.272 72.3344 69.12 72.3344 70.176C72.3344 71.552 72.9744 72.24 74.2544 72.24C76.3984 72.24 78.0784 69.712 79.2944 64.656C79.6464 63.28 79.9664 61.904 80.2544 60.528C78.8144 62.288 76.4624 63.168 73.1984 63.168C70.9264 63.168 69.1344 62.624 67.8224 61.536C66.5104 60.448 65.8544 58.624 65.8544 56.064C65.8544 54.464 66.1264 52.768 66.6704 50.976C67.2144 49.152 68.0304 47.472 69.1184 45.936ZM75.3584 56.208C75.3584 58.384 75.9184 59.472 77.0384 59.472C77.8064 59.472 78.5584 59.056 79.2944 58.224C79.8704 57.552 80.2704 56.72 80.4944 55.728L82.9424 43.392C82.7824 43.36 82.6224 43.312 82.4624 43.248C82.1424 43.12 81.7744 43.056 81.3584 43.056C79.4064 43.056 77.8544 44.656 76.7024 47.856C75.8064 50.352 75.3584 53.136 75.3584 56.208ZM99.6287 66.96C92.5887 66.96 89.0687 63.648 89.0687 57.024C89.0687 52.32 90.3647 48.448 92.9567 45.408C95.7087 42.176 99.4687 40.56 104.237 40.56C107.693 40.56 110.301 41.36 112.061 42.96C113.821 44.56 114.701 47.04 114.701 50.4C114.701 55.52 113.325 59.568 110.573 62.544C107.885 65.488 104.237 66.96 99.6287 66.96ZM100.877 46.08C100.493 46.944 100.141 48.032 99.8207 49.344C99.5327 50.624 99.1967 52.288 98.8127 54.336C98.4287 56.384 98.2367 58.672 98.2367 61.2C98.2367 62.032 98.3647 62.72 98.6207 63.264C98.9087 63.808 99.4207 64.08 100.157 64.08C100.893 64.08 101.485 63.904 101.933 63.552C102.413 63.2 102.829 62.608 103.181 61.776C103.821 60.304 104.397 58.208 104.909 55.488C105.421 52.736 105.693 50.768 105.725 49.584C105.789 48.4 105.821 47.376 105.821 46.512C105.821 45.616 105.693 44.88 105.437 44.304C105.181 43.728 104.685 43.44 103.949 43.44C103.245 43.44 102.653 43.664 102.173 44.112C101.693 44.56 101.261 45.216 100.877 46.08ZM110.596 62.224C110.596 60.6027 111.215 59.344 112.452 58.448C113.732 57.552 115.268 57.104 117.06 57.104C118.852 57.104 120.281 57.552 121.348 58.448C122.457 59.344 123.012 60.6027 123.012 62.224C123.012 63.8453 122.393 65.104 121.156 66C119.961 66.8533 118.468 67.28 116.676 67.28C114.884 67.28 113.412 66.8533 112.26 66C111.151 65.104 110.596 63.8453 110.596 62.224Z" fill="url(#paint0_linear_1_2)"/>
</g>
<defs>
<filter id="filter0_d_1_2" x="0.863998" y="0.639999" width="126.148" height="80.96" filterUnits="userSpaceOnUse" color-interpolation-filters="sRGB">
<feFlood flood-opacity="0" result="BackgroundImageFix"/>
<feColorMatrix in="SourceAlpha" type="matrix" values="0 0 0 0 0 0 0 0 0 0 0 0 0 0 0 0 0 0 127 0" result="hardAlpha"/>
<feOffset dy="2"/>
<feGaussianBlur stdDeviation="2"/>
<feComposite in2="hardAlpha" operator="out"/>
<feColorMatrix type="matrix" values="0 0 0 0 0 0 0 0 0 0 0 0 0 0 0 0 0 0 0.25 0"/>
<feBlend mode="normal" in2="BackgroundImageFix" result="effect1_dropShadow_1_2"/>
<feBlend mode="normal" in="SourceGraphic" in2="effect1_dropShadow_1_2" result="shape"/>
</filter>
<linearGradient id="paint0_linear_1_2" x1="63.5" y1="-8.5" x2="71" y2="84" gradientUnits="userSpaceOnUse">
<stop stop-color="#47601F"/>
<stop offset="0.742314" stop-color="#0F1610"/>
<stop offset="1" stop-color="#085677"/>
</linearGradient>
</defs>
</svg>
