<svg width="165" height="89" viewBox="0 0 165 89" fill="none" xmlns="http://www.w3.org/2000/svg">
<g filter="url(#filter0_d_3_41)">
<path d="M43.072 28.648C44.032 26.728 44.512 24.872 44.512 23.08C44.512 21.288 44.416 19.912 44.224 18.952C44.032 17.928 43.712 17.032 43.264 16.264C42.304 14.6 40.864 13.768 38.944 13.768C36.576 13.768 34.432 14.632 32.512 16.36C30.464 18.152 29.44 20.456 29.44 23.272C29.44 25.064 30.048 26.664 31.264 28.072C32.544 29.416 34.144 30.728 36.064 32.008C37.984 33.288 40.032 34.568 42.208 35.848C44.384 37.128 46.432 38.536 48.352 40.072C52.768 43.592 54.976 47.72 54.976 52.456C54.976 55.656 54.112 58.632 52.384 61.384C50.72 64.072 48.48 66.408 45.664 68.392C39.52 72.744 32.384 74.92 24.256 74.92C17.664 74.92 12.672 73.864 9.28 71.752C5.888 69.576 4.192 66.856 4.192 63.592C4.192 57.768 6.464 54.12 11.008 52.648C12.288 52.2 13.888 51.976 15.808 51.976C17.792 51.976 19.904 52.392 22.144 53.224C21.12 55.848 20.608 58.344 20.608 60.712C20.608 65.832 22.432 68.392 26.08 68.392C28.448 68.392 30.592 67.528 32.512 65.8C34.496 64.072 35.488 62.248 35.488 60.328C35.488 58.344 34.848 56.648 33.568 55.24C32.352 53.832 30.816 52.584 28.96 51.496C27.104 50.344 25.088 49.224 22.912 48.136C20.8 47.048 18.816 45.736 16.96 44.2C12.608 40.68 10.432 36.104 10.432 30.472C10.432 26.824 11.328 23.592 13.12 20.776C14.912 17.896 17.248 15.496 20.128 13.576C25.888 9.672 32.288 7.72 39.328 7.72C46.432 7.72 51.68 8.776 55.072 10.888C58.528 13 60.256 15.848 60.256 19.432C60.256 22.568 59.04 25.128 56.608 27.112C54.496 28.776 52.16 29.608 49.6 29.608C47.04 29.608 44.864 29.288 43.072 28.648ZM62.401 70.36C61.409 72.76 59.329 73.96 56.161 73.96C54.529 73.96 53.201 73.4 52.177 72.28C51.313 71.288 50.881 70.296 50.881 69.304C50.881 66.712 51.473 62.888 52.657 57.832L54.433 48.52L64.177 47.56L61.249 62.728C60.705 65.096 60.433 66.696 60.433 67.528C60.433 69.352 61.089 70.296 62.401 70.36ZM55.297 41.848C55.297 40.6 55.809 39.64 56.833 38.968C57.889 38.296 59.169 37.96 60.673 37.96C62.177 37.96 63.377 38.296 64.273 38.968C65.201 39.64 65.665 40.6 65.665 41.848C65.665 43.096 65.153 44.04 64.129 44.68C63.137 45.32 61.889 45.64 60.385 45.64C58.881 45.64 57.649 45.32 56.689 44.68C55.761 44.04 55.297 43.096 55.297 41.848ZM64.6184 52.936C65.7064 51.4 67.0664 50.12 68.6984 49.096C70.3624 48.072 72.2024 47.56 74.2184 47.56C76.2344 47.56 77.7224 47.88 78.6824 48.52L88.0904 47.56L84.8264 65.992C83.7064 72.264 81.9624 76.632 79.5944 79.096C77.3224 81.432 73.9784 82.6 69.5624 82.6C66.2024 82.6 63.5624 82.072 61.6424 81.016C59.7224 79.96 58.7624 78.552 58.7624 76.792C58.7624 75.48 59.2584 74.44 60.2504 73.672C61.2424 72.936 62.5064 72.568 64.0424 72.568C65.3864 72.568 66.5704 72.872 67.5944 73.48C68.2024 73.8 68.6504 74.184 68.9384 74.632C68.2024 75.272 67.8344 76.12 67.8344 77.176C67.8344 78.552 68.4744 79.24 69.7544 79.24C71.8984 79.24 73.5784 76.712 74.7944 71.656C75.1464 70.28 75.4664 68.904 75.7544 67.528C74.3144 69.288 71.9624 70.168 68.6984 70.168C66.4264 70.168 64.6344 69.624 63.3224 68.536C62.0104 67.448 61.3544 65.624 61.3544 63.064C61.3544 61.464 61.6264 59.768 62.1704 57.976C62.7144 56.152 63.5304 54.472 64.6184 52.936ZM70.8584 63.208C70.8584 65.384 71.4184 66.472 72.5384 66.472C73.3064 66.472 74.0584 66.056 74.7944 65.224C75.3704 64.552 75.7704 63.72 75.9944 62.728L78.4424 50.392C78.2824 50.36 78.1224 50.312 77.9624 50.248C77.6424 50.12 77.2744 50.056 76.8584 50.056C74.9064 50.056 73.3544 51.656 72.2024 54.856C71.3064 57.352 70.8584 60.136 70.8584 63.208ZM104.969 73.96C101.097 73.96 99.1607 72.456 99.1607 69.448C99.1927 68.616 99.3367 67.496 99.5927 66.088L100.457 61.672C101.321 57.512 101.753 54.968 101.753 54.04C101.753 52.184 101.209 51.256 100.121 51.256C98.2967 51.256 96.9047 53.64 95.9447 58.408L93.1127 73L83.4647 73.96L88.4567 48.472L96.3287 47.56L95.5607 52.264C97.0647 49.128 100.121 47.56 104.729 47.56C106.969 47.56 108.553 48.04 109.481 49C110.441 49.928 110.921 51.448 110.921 53.56C110.921 55.544 110.409 58.856 109.385 63.496C108.905 65.576 108.665 67.016 108.665 67.816C108.665 68.584 108.873 69.192 109.289 69.64C109.737 70.088 110.281 70.344 110.921 70.408C110.601 71.496 109.881 72.36 108.761 73C107.673 73.64 106.409 73.96 104.969 73.96ZM137.945 67.72C135.961 72.52 131.801 74.92 125.465 74.92C122.201 74.92 119.545 73.8 117.497 71.56C115.769 69.576 114.905 67.592 114.905 65.608C114.905 60.424 116.089 52.776 118.457 42.664L122.009 24.04L141.497 22.12L135.641 52.456C134.553 57.192 134.009 60.392 134.009 62.056C134.009 65.704 135.321 67.592 137.945 67.72ZM123.737 10.696C123.737 8.2 124.761 6.28 126.809 4.936C128.921 3.592 131.481 2.92 134.489 2.92C137.497 2.92 139.897 3.592 141.689 4.936C143.545 6.28 144.473 8.2 144.473 10.696C144.473 13.192 143.449 15.08 141.401 16.36C139.417 17.64 136.921 18.28 133.913 18.28C130.905 18.28 128.441 17.64 126.521 16.36C124.665 15.08 123.737 13.192 123.737 10.696ZM155.052 73.96C151.18 73.96 149.244 72.456 149.244 69.448C149.276 68.616 149.42 67.496 149.676 66.088L150.54 61.672C151.404 57.512 151.836 54.968 151.836 54.04C151.836 52.184 151.292 51.256 150.204 51.256C148.38 51.256 146.988 53.64 146.028 58.408L143.196 73L133.548 73.96L138.54 48.472L146.412 47.56L145.644 52.264C147.148 49.128 150.204 47.56 154.812 47.56C157.052 47.56 158.636 48.04 159.564 49C160.524 49.928 161.004 51.448 161.004 53.56C161.004 55.544 160.492 58.856 159.468 63.496C158.988 65.576 158.748 67.016 158.748 67.816C158.748 68.584 158.956 69.192 159.372 69.64C159.82 70.088 160.364 70.344 161.004 70.408C160.684 71.496 159.964 72.36 158.844 73C157.756 73.64 156.492 73.96 155.052 73.96Z" fill="url(#paint0_linear_3_41)"/>
</g>
<defs>
<filter id="filter0_d_3_41" x="0.191986" y="0.920013" width="164.812" height="87.68" filterUnits="userSpaceOnUse" color-interpolation-filters="sRGB">
<feFlood flood-opacity="0" result="BackgroundImageFix"/>
<feColorMatrix in="SourceAlpha" type="matrix" values="0 0 0 0 0 0 0 0 0 0 0 0 0 0 0 0 0 0 127 0" result="hardAlpha"/>
<feOffset dy="2"/>
<feGaussianBlur stdDeviation="2"/>
<feComposite in2="hardAlpha" operator="out"/>
<feColorMatrix type="matrix" values="0 0 0 0 0 0 0 0 0 0 0 0 0 0 0 0 0 0 0.25 0"/>
<feBlend mode="normal" in2="BackgroundImageFix" result="effect1_dropShadow_3_41"/>
<feBlend mode="normal" in="SourceGraphic" in2="effect1_dropShadow_3_41" result="shape"/>
</filter>
<linearGradient id="paint0_linear_3_41" x1="81.254" y1="-1.5" x2="87.0458" y2="91.2464" gradientUnits="userSpaceOnUse">
<stop stop-color="#47601F"/>
<stop offset="0.742314" stop-color="#0F1610"/>
<stop offset="1" stop-color="#085677"/>
</linearGradient>
</defs>
</svg>
