<svg width="210" height="74" viewBox="0 0 210 74" fill="none" xmlns="http://www.w3.org/2000/svg">
<g filter="url(#filter0_d_3_42)">
<path d="M4.456 51.792C4.456 49.296 4.776 46.448 5.416 43.248L13.192 2.64H34.408L26.728 43.536C26.152 46.544 25.864 49.168 25.864 51.408C25.864 53.584 26.312 55.248 27.208 56.4C28.168 57.552 29.512 58.128 31.24 58.128C32.968 58.128 34.376 57.904 35.464 57.456C36.552 57.008 37.544 56.24 38.44 55.152C40.168 52.976 41.576 49.104 42.664 43.536L50.44 2.64H64.936L57.256 43.44C55.464 52.528 52.104 58.896 47.176 62.544C42.376 66.128 35.24 67.92 25.768 67.92C18.664 67.92 13.224 66.384 9.448 63.312C6.12 60.624 4.456 56.784 4.456 51.792ZM69.8267 49.152C70.2747 47.968 70.4987 46.864 70.4987 45.84C70.4987 43.952 69.7307 43.008 68.1947 43.008C67.3947 43.008 66.6587 43.376 65.9867 44.112C65.3467 44.816 65.0267 45.616 65.0267 46.512C65.0267 47.152 65.2827 47.728 65.7947 48.24C66.5307 48.944 67.8427 49.872 69.7307 51.024C71.6187 52.176 72.9147 53.232 73.6187 54.192C74.3547 55.12 74.7227 56.24 74.7227 57.552C74.7227 58.832 74.4027 60.064 73.7628 61.248C73.1547 62.432 72.2907 63.44 71.1707 64.272C68.7707 66.064 65.6507 66.96 61.8107 66.96C59.7307 66.96 57.8907 66.416 56.2907 65.328C54.6907 64.272 53.8907 63.12 53.8907 61.872C53.8907 60.624 54.3387 59.632 55.2347 58.896C56.1627 58.16 57.2987 57.792 58.6427 57.792C59.9867 57.792 61.0747 58.048 61.9067 58.56C61.4907 59.616 61.2827 60.496 61.2827 61.2C61.2827 63.312 62.1787 64.368 63.9707 64.368C64.7387 64.368 65.3787 64.128 65.8907 63.648C66.4027 63.168 66.6587 62.512 66.6587 61.68C66.6587 60.048 65.2827 58.368 62.5307 56.64C60.2907 55.168 58.9147 54.144 58.4027 53.568C57.5387 52.544 57.1067 51.392 57.1067 50.112C57.1067 48.832 57.4107 47.584 58.0187 46.368C58.6267 45.152 59.4907 44.112 60.6107 43.248C62.9467 41.456 66.1467 40.56 70.2107 40.56C72.2907 40.56 73.9387 40.976 75.1547 41.808C76.4027 42.64 77.0267 43.76 77.0267 45.168C77.0267 46.576 76.5947 47.68 75.7307 48.48C74.8987 49.28 73.7147 49.68 72.1787 49.68C71.1227 49.68 70.3387 49.504 69.8267 49.152ZM92.9785 57.888C93.7785 58.432 94.1785 59.312 94.1785 60.528C94.1785 61.712 93.8745 62.688 93.2665 63.456C92.6585 64.224 91.8585 64.864 90.8665 65.376C88.8185 66.432 86.6905 66.96 84.4825 66.96C82.2745 66.96 80.5145 66.72 79.2025 66.24C77.9225 65.76 76.8505 65.072 75.9865 64.176C74.2905 62.48 73.4425 60.08 73.4425 56.976C73.4425 52.144 74.7545 48.256 77.3785 45.312C80.1945 42.144 84.0505 40.56 88.9465 40.56C91.9865 40.56 94.2585 41.2 95.7625 42.48C96.8825 43.44 97.4425 44.704 97.4425 46.272C97.4425 51.904 92.5785 54.72 82.8505 54.72C82.7225 55.552 82.6585 56.32 82.6585 57.024C82.6585 58.496 82.9785 59.52 83.6185 60.096C84.2905 60.64 85.2345 60.912 86.4505 60.912C87.6665 60.912 88.9145 60.64 90.1945 60.096C91.5065 59.52 92.4345 58.784 92.9785 57.888ZM83.1865 52.656C85.4585 52.656 87.2505 51.952 88.5625 50.544C89.8745 49.2 90.5305 47.456 90.5305 45.312C90.5305 44.576 90.3865 44.016 90.0985 43.632C89.8425 43.216 89.4425 43.008 88.8985 43.008C88.3545 43.008 87.8425 43.12 87.3625 43.344C86.9145 43.536 86.4505 43.984 85.9705 44.688C84.7865 46.288 83.8585 48.944 83.1865 52.656ZM108.829 52.512C109.981 50.464 110.557 48.4 110.557 46.32C110.557 44.944 110.061 44.256 109.069 44.256C108.301 44.256 107.517 44.912 106.717 46.224C105.885 47.536 105.341 49.04 105.085 50.736L102.589 66L92.6534 66.96L97.5494 41.52L105.469 40.56L104.605 45.408C106.173 42.176 108.717 40.56 112.237 40.56C114.093 40.56 115.517 41.04 116.509 42C117.533 42.96 118.045 44.432 118.045 46.416C118.045 48.368 117.389 49.968 116.077 51.216C114.797 52.464 113.053 53.088 110.845 53.088C109.885 53.088 109.213 52.896 108.829 52.512ZM117.927 66L130.119 2.64H151.239L138.855 66H117.927ZM162.317 66.96C158.445 66.96 156.509 65.456 156.509 62.448C156.541 61.616 156.685 60.496 156.941 59.088L157.805 54.672C158.669 50.512 159.101 47.968 159.101 47.04C159.101 45.184 158.557 44.256 157.469 44.256C155.645 44.256 154.253 46.64 153.293 51.408L150.461 66L140.813 66.96L145.805 41.472L153.677 40.56L152.909 45.264C154.413 42.128 157.469 40.56 162.077 40.56C164.317 40.56 165.901 41.04 166.829 42C167.789 42.928 168.269 44.448 168.269 46.56C168.269 48.544 167.757 51.856 166.733 56.496C166.253 58.576 166.013 60.016 166.013 60.816C166.013 61.584 166.221 62.192 166.637 62.64C167.085 63.088 167.629 63.344 168.269 63.408C167.949 64.496 167.229 65.36 166.109 66C165.021 66.64 163.757 66.96 162.317 66.96ZM185.547 38.16C185.995 37.392 186.219 36.592 186.219 35.76C186.219 34.288 185.771 33.552 184.875 33.552C183.499 33.552 182.523 34.96 181.947 37.776L181.227 41.52H185.595L185.307 43.68H180.795L176.475 66L166.779 66.96L171.387 43.68H167.979L168.411 41.52H171.771L172.779 37.728C173.355 35.392 174.875 33.68 177.339 32.592C179.131 31.824 181.531 31.44 184.539 31.44C187.547 31.44 189.723 31.824 191.067 32.592C192.411 33.36 193.083 34.256 193.083 35.28C193.083 36.304 192.683 37.136 191.883 37.776C191.083 38.416 190.235 38.736 189.339 38.736C187.579 38.736 186.315 38.544 185.547 38.16ZM189.964 66.96C182.924 66.96 179.404 63.648 179.404 57.024C179.404 52.32 180.7 48.448 183.292 45.408C186.044 42.176 189.804 40.56 194.572 40.56C198.028 40.56 200.636 41.36 202.396 42.96C204.156 44.56 205.036 47.04 205.036 50.4C205.036 55.52 203.66 59.568 200.908 62.544C198.22 65.488 194.572 66.96 189.964 66.96ZM191.212 46.08C190.828 46.944 190.476 48.032 190.156 49.344C189.868 50.624 189.532 52.288 189.148 54.336C188.764 56.384 188.572 58.672 188.572 61.2C188.572 62.032 188.7 62.72 188.956 63.264C189.244 63.808 189.756 64.08 190.492 64.08C191.228 64.08 191.82 63.904 192.268 63.552C192.748 63.2 193.164 62.608 193.516 61.776C194.156 60.304 194.732 58.208 195.244 55.488C195.756 52.736 196.028 50.768 196.06 49.584C196.124 48.4 196.156 47.376 196.156 46.512C196.156 45.616 196.028 44.88 195.772 44.304C195.516 43.728 195.02 43.44 194.284 43.44C193.58 43.44 192.988 43.664 192.508 44.112C192.028 44.56 191.596 45.216 191.212 46.08Z" fill="url(#paint0_linear_3_42)"/>
</g>
<defs>
<filter id="filter0_d_3_42" x="0.456001" y="0.639984" width="208.58" height="73.28" filterUnits="userSpaceOnUse" color-interpolation-filters="sRGB">
<feFlood flood-opacity="0" result="BackgroundImageFix"/>
<feColorMatrix in="SourceAlpha" type="matrix" values="0 0 0 0 0 0 0 0 0 0 0 0 0 0 0 0 0 0 127 0" result="hardAlpha"/>
<feOffset dy="2"/>
<feGaussianBlur stdDeviation="2"/>
<feComposite in2="hardAlpha" operator="out"/>
<feColorMatrix type="matrix" values="0 0 0 0 0 0 0 0 0 0 0 0 0 0 0 0 0 0 0.25 0"/>
<feBlend mode="normal" in2="BackgroundImageFix" result="effect1_dropShadow_3_42"/>
<feBlend mode="normal" in="SourceGraphic" in2="effect1_dropShadow_3_42" result="shape"/>
</filter>
<linearGradient id="paint0_linear_3_42" x1="100.327" y1="-8.5" x2="104.838" y2="84.389" gradientUnits="userSpaceOnUse">
<stop stop-color="#47601F"/>
<stop offset="0.742314" stop-color="#0F1610"/>
<stop offset="1" stop-color="#085677"/>
</linearGradient>
</defs>
</svg>
